<svg width="1200" height="560" viewBox="0 0 1200 560" fill="none" xmlns="http://www.w3.org/2000/svg">
  <defs>
    <filter id="paper" x="-10%" y="-10%" width="120%" height="120%">
      <feTurbulence type="fractalNoise" baseFrequency="0.012" numOctaves="5" seed="41"/>
      <feColorMatrix type="matrix" values="0.26 0 0 0 0.73 0 0.22 0 0 0.65 0 0 0.16 0 0.48 0 0 0 0.16 0"/>
    </filter>
    <linearGradient id="gold" x1="43" y1="31" x2="1160" y2="532" gradientUnits="userSpaceOnUse">
      <stop stop-color="#EBD99C"/><stop offset=".35" stop-color="#96702A"/><stop offset=".72" stop-color="#D4B86F"/><stop offset="1" stop-color="#73511E"/>
    </linearGradient>
  </defs>
  <rect width="1200" height="560" rx="36" fill="#EFE5CF"/>
  <rect width="1200" height="560" rx="36" filter="url(#paper)" opacity=".72"/>
  <rect x="22" y="22" width="1156" height="516" rx="30" stroke="url(#gold)" stroke-width="14"/>
  <rect x="43" y="43" width="1114" height="474" rx="22" stroke="#8F6828" stroke-width="2" opacity=".6"/>
  <rect x="68" y="82" width="96" height="396" rx="20" fill="#8D2F24" stroke="#D7B36A" stroke-width="5"/>
  <rect x="82" y="100" width="68" height="360" rx="14" stroke="#E4C987" stroke-width="2" opacity=".65"/>
  <path d="M125 142v274" stroke="#D9BF7B" stroke-width="8" stroke-linecap="round" opacity=".35"/>
  <g stroke="#68714B" stroke-width="3" stroke-linecap="round" stroke-linejoin="round" opacity=".52">
    <path d="M758 405c82-5 153-45 212-121M728 438c99 10 209-17 331-82"/>
    <path d="M821 184c41-63 132-63 173 0 32 49 13 117-50 145l-42 19-42-19c-62-28-80-96-39-145Z"/>
    <path d="M902 132v220M835 242h134"/>
    <path d="M738 238c61-51 124-78 190-80 63-2 121 19 173 64"/>
    <circle cx="785" cy="390" r="22"/>
    <circle cx="1055" cy="324" r="18"/>
  </g>
  <g stroke="#68714B" stroke-width="2" opacity=".23">
    <path d="M774 457c64-18 128-18 191 0M801 176c-24 84-19 154 14 211M1013 178c20 81 14 150-18 207"/>
  </g>
  <circle cx="1042" cy="405" r="57" stroke="#A32626" stroke-width="4" opacity=".54"/>
  <circle cx="1042" cy="405" r="45" stroke="#A32626" stroke-width="2" opacity=".32"/>
  <path d="M230 108c76 8 144 4 201-12M220 449c89-18 180-16 276 4" stroke="#887151" stroke-width="2" opacity=".18"/>
</svg>
