<svg width="1200" height="560" viewBox="0 0 1200 560" fill="none" xmlns="http://www.w3.org/2000/svg">
  <defs>
    <filter id="paper" x="-10%" y="-10%" width="120%" height="120%">
      <feTurbulence type="fractalNoise" baseFrequency="0.012" numOctaves="5" seed="11"/>
      <feColorMatrix type="matrix" values="0.28 0 0 0 0.72 0 0.22 0 0 0.61 0 0 0.16 0 0.43 0 0 0 0.18 0"/>
    </filter>
    <linearGradient id="gold" x1="60" y1="34" x2="1140" y2="526" gradientUnits="userSpaceOnUse">
      <stop stop-color="#F0D99C"/><stop offset=".32" stop-color="#9B742F"/><stop offset=".68" stop-color="#DAB86B"/><stop offset="1" stop-color="#7E5A22"/>
    </linearGradient>
  </defs>
  <rect width="1200" height="560" rx="36" fill="#F2E4CC"/>
  <rect width="1200" height="560" rx="36" filter="url(#paper)" opacity=".75"/>
  <rect x="22" y="22" width="1156" height="516" rx="30" stroke="url(#gold)" stroke-width="14"/>
  <rect x="43" y="43" width="1114" height="474" rx="22" stroke="#8F6828" stroke-width="2" opacity=".6"/>
  <rect x="68" y="82" width="96" height="396" rx="20" fill="#8D2F24" stroke="#D7B36A" stroke-width="5"/>
  <rect x="82" y="100" width="68" height="360" rx="14" stroke="#E4C987" stroke-width="2" opacity=".65"/>
  <path d="M125 142v274" stroke="#D9BF7B" stroke-width="8" stroke-linecap="round" opacity=".35"/>
  <g stroke="#7A6752" stroke-width="3" stroke-linecap="round" stroke-linejoin="round" opacity=".46">
    <path d="M742 394c40-52 143-54 184 0"/>
    <path d="M773 366h122M803 336h64M834 151v105l69 42"/>
    <circle cx="834" cy="256" r="92"/>
    <circle cx="834" cy="256" r="20" fill="#7A6752" opacity=".16"/>
    <path d="M834 129v-34M834 417v-34M961 256h34M673 256h34M924 166l24-24M720 370l24-24M924 346l24 24M720 142l24 24"/>
    <path d="M640 430c42-42 93-62 152-58 76 5 137-10 184-45"/>
  </g>
  <g stroke="#705F4D" stroke-width="2" opacity=".27">
    <path d="M895 430c46 2 92-8 139-30"/>
    <path d="M956 389c32 21 67 24 105 10"/>
    <path d="M986 349c30 5 54 1 73-12"/>
  </g>
  <circle cx="1042" cy="405" r="57" stroke="#A32626" stroke-width="4" opacity=".54"/>
  <circle cx="1042" cy="405" r="45" stroke="#A32626" stroke-width="2" opacity=".32"/>
  <path d="M230 108c74 7 138 4 190-9M222 448c92-18 181-17 268 5" stroke="#887151" stroke-width="2" opacity=".18"/>
</svg>
