<svg width="1200" height="560" viewBox="0 0 1200 560" fill="none" xmlns="http://www.w3.org/2000/svg">
  <defs>
    <filter id="paper" x="-10%" y="-10%" width="120%" height="120%">
      <feTurbulence type="fractalNoise" baseFrequency="0.013" numOctaves="5" seed="37"/>
      <feColorMatrix type="matrix" values="0.28 0 0 0 0.75 0 0.20 0 0 0.62 0 0 0.15 0 0.45 0 0 0 0.16 0"/>
    </filter>
    <linearGradient id="gold" x1="42" y1="31" x2="1158" y2="533" gradientUnits="userSpaceOnUse">
      <stop stop-color="#EFD999"/><stop offset=".35" stop-color="#9B732B"/><stop offset=".72" stop-color="#D8BB71"/><stop offset="1" stop-color="#75531F"/>
    </linearGradient>
  </defs>
  <rect width="1200" height="560" rx="36" fill="#F0E2CD"/>
  <rect width="1200" height="560" rx="36" filter="url(#paper)" opacity=".72"/>
  <rect x="22" y="22" width="1156" height="516" rx="30" stroke="url(#gold)" stroke-width="14"/>
  <rect x="43" y="43" width="1114" height="474" rx="22" stroke="#8F6828" stroke-width="2" opacity=".6"/>
  <rect x="68" y="82" width="96" height="396" rx="20" fill="#8D2F24" stroke="#D7B36A" stroke-width="5"/>
  <rect x="82" y="100" width="68" height="360" rx="14" stroke="#E4C987" stroke-width="2" opacity=".65"/>
  <path d="M125 142v274" stroke="#D9BF7B" stroke-width="8" stroke-linecap="round" opacity=".35"/>
  <g stroke="#835746" stroke-width="3" stroke-linecap="round" stroke-linejoin="round" opacity=".52">
    <path d="M748 222h346v214H748zM814 222v214M1028 222v214M748 292h346M748 362h346"/>
    <path d="M704 218c71-44 144-67 219-68 76-1 143 20 201 63"/>
    <path d="M888 331c0-41 63-41 63 0 0 45-63 54-63 99 0-45-63-54-63-99 0-41 63-41 63 0Z"/>
    <path d="M765 188h315"/>
  </g>
  <path d="M727 452c57-22 117-24 180-7 65 18 126 12 184-17" stroke="#835746" stroke-width="2" opacity=".22"/>
  <circle cx="1042" cy="405" r="57" stroke="#A32626" stroke-width="4" opacity=".54"/>
  <circle cx="1042" cy="405" r="45" stroke="#A32626" stroke-width="2" opacity=".32"/>
  <path d="M230 108c75 8 143 4 202-12M220 449c88-17 179-16 274 4" stroke="#887151" stroke-width="2" opacity=".18"/>
</svg>
