<svg width="1200" height="560" viewBox="0 0 1200 560" fill="none" xmlns="http://www.w3.org/2000/svg">
  <defs>
    <filter id="paper" x="-10%" y="-10%" width="120%" height="120%">
      <feTurbulence type="fractalNoise" baseFrequency="0.012" numOctaves="5" seed="31"/>
      <feColorMatrix type="matrix" values="0.25 0 0 0 0.72 0 0.22 0 0 0.64 0 0 0.18 0 0.52 0 0 0 0.16 0"/>
    </filter>
    <linearGradient id="gold" x1="40" y1="28" x2="1162" y2="533" gradientUnits="userSpaceOnUse">
      <stop stop-color="#ECD79A"/><stop offset=".35" stop-color="#98702A"/><stop offset=".71" stop-color="#D8BB72"/><stop offset="1" stop-color="#71511E"/>
    </linearGradient>
  </defs>
  <rect width="1200" height="560" rx="36" fill="#EFE4CE"/>
  <rect width="1200" height="560" rx="36" filter="url(#paper)" opacity=".72"/>
  <rect x="22" y="22" width="1156" height="516" rx="30" stroke="url(#gold)" stroke-width="14"/>
  <rect x="43" y="43" width="1114" height="474" rx="22" stroke="#8F6828" stroke-width="2" opacity=".6"/>
  <rect x="68" y="82" width="96" height="396" rx="20" fill="#8D2F24" stroke="#D7B36A" stroke-width="5"/>
  <rect x="82" y="100" width="68" height="360" rx="14" stroke="#E4C987" stroke-width="2" opacity=".65"/>
  <path d="M125 142v274" stroke="#D9BF7B" stroke-width="8" stroke-linecap="round" opacity=".35"/>
  <g stroke="#56677A" stroke-width="3" stroke-linecap="round" stroke-linejoin="round" opacity=".52">
    <path d="M762 420V190l52-57h206l52 57v230"/>
    <path d="M817 420V218h202v202M817 284h202M817 350h202M918 218v202M762 420h310"/>
    <path d="M863 133c23 30 88 30 111 0"/>
    <path d="M728 448c65-39 125-49 179-30 56 20 120 11 192-28"/>
  </g>
  <g stroke="#56677A" stroke-width="2" opacity=".24">
    <path d="M775 226l294 194M1062 225 773 420M812 150l-51 270M1020 151l49 269"/>
  </g>
  <circle cx="1042" cy="405" r="57" stroke="#A32626" stroke-width="4" opacity=".54"/>
  <circle cx="1042" cy="405" r="45" stroke="#A32626" stroke-width="2" opacity=".32"/>
  <path d="M230 108c74 7 141 3 199-12M220 449c92-17 184-16 276 4" stroke="#887151" stroke-width="2" opacity=".18"/>
</svg>
